HIERARCHY
ROOT hip
{
	OFFSET 0.000000 0.000000 0.000000 
	CHANNELS 6 Xposition Yposition Zposition Xrotation Zrotation Yrotation
	JOINT abdomen
	{
		OFFSET 0.000000 3.402643 0.000000 
		CHANNELS 3 Xrotation Zrotation Yrotation
		JOINT chest
		{
			OFFSET 0.000000 8.438565 -0.680529 
			CHANNELS 3 Xrotation Zrotation Yrotation
			JOINT neck
			{
				OFFSET 0.000000 10.207942 -0.272212 
				CHANNELS 3 Xrotation Zrotation Yrotation
				JOINT head
				{
					OFFSET 0.000000 3.130431 0.000000 
					CHANNELS 3 Xrotation Zrotation Yrotation
					End Site
					{
						OFFSET 0.000000 3.130435 0.000000 
					}
				}
			}
			JOINT lCollar
			{
				OFFSET 3.470700 6.669187 -0.816635 
				CHANNELS 3 Yrotation Zrotation Xrotation
				JOINT lShldr
				{
					OFFSET 3.198488 0.000000 0.000000 
					CHANNELS 3 Zrotation Yrotation Xrotation
					JOINT lForeArm
					{
						OFFSET 10.139888 0.000000 0.000000 
						CHANNELS 3 Yrotation Zrotation Xrotation
						JOINT lHand
						{
							OFFSET 8.370511 0.000000 0.000000 
							CHANNELS 3 Zrotation Yrotation Xrotation
							End Site
							{
								OFFSET 4.083176 0.000000 0.000000 
							}
						}
					}
				}
			}
			JOINT rCollar
			{
				OFFSET -3.470700 6.669187 -0.816635 
				CHANNELS 3 Yrotation Zrotation Xrotation
				JOINT rShldr
				{
					OFFSET -3.198488 0.000000 0.000000 
					CHANNELS 3 Zrotation Yrotation Xrotation
					JOINT rForeArm
					{
						OFFSET -10.139888 0.000000 0.000000 
						CHANNELS 3 Yrotation Zrotation Xrotation
						JOINT rHand
						{
							OFFSET -8.370511 0.000000 0.000000 
							CHANNELS 3 Zrotation Yrotation Xrotation
							End Site
							{
								OFFSET -4.083176 0.000000 0.000000 
							}
						}
					}
				}
			}
		}
	}
	JOINT lThigh
	{
		OFFSET 5.308129 -1.633274 1.361059 
		CHANNELS 3 Xrotation Zrotation Yrotation
		JOINT lShin
		{
			OFFSET -2.041588 -20.007561 0.000000 
			CHANNELS 3 Xrotation Zrotation Yrotation
			JOINT lFoot
			{
				OFFSET 0.000000 -19.190928 -1.224953 
				CHANNELS 3 Xrotation Yrotation Zrotation
				End Site
				{
					OFFSET 0.000000 -2.449906 4.627600 
				}
			}
		}
	}
	JOINT rThigh
	{
		OFFSET -5.308129 -1.633274 1.361059 
		CHANNELS 3 Xrotation Zrotation Yrotation
		JOINT rShin
		{
			OFFSET 2.041588 -20.007561 0.000000 
			CHANNELS 3 Xrotation Zrotation Yrotation
			JOINT rFoot
			{
				OFFSET 0.000000 -19.190928 -1.224953 
				CHANNELS 3 Xrotation Yrotation Zrotation
				End Site
				{
					OFFSET 0.000000 -2.449906 4.627600 
				}
			}
		}
	}
}
MOTION
Frames: 20
Frame Time: 0.033333
-7.179082 50.736439 38.315453 -3.027426 0.002542 86.269531 0.000000 0.000000 0.000000 4.268359 0.624911 0.966952 2.682813 3.597183 -6.859111 -24.287884 -5.119635 -4.686777 -3.430904 -1.916620 9.126755 -73.461433 37.353481 -5.143108 -46.990067 -6.674828 19.470182 12.826780 6.206667 -3.225263 10.424482 12.643707 8.092282 45.645405 -9.933799 4.964019 69.764351 9.834584 20.990728 -19.478952 -2.624894 -3.628829 -19.181692 3.992439 -0.881764 9.808233 -0.056075 22.140680 9.280547 -0.149252 -1.927774 7.768612 -1.805545 -5.099958 25.692429 3.471092 5.466623 -15.438152 0.092869 -0.544180 
-5.317574 50.909943 37.993443 -2.444877 0.652229 85.960472 0.000000 0.000000 0.000000 4.370594 0.273385 1.123081 2.569958 2.281018 -6.313292 -23.431648 -4.327614 -5.239885 -3.464245 -3.036489 9.230086 -72.665253 37.273602 -4.590037 -48.380054 -6.976342 19.192202 12.684241 6.871430 -3.154688 10.414508 11.560181 8.452315 48.161602 -11.899693 4.899943 70.169121 9.684912 21.313271 -19.488129 -2.634692 -3.625104 -18.309853 2.860898 -0.666899 13.989814 -0.096227 21.857485 5.193392 -0.079825 -1.566366 6.853838 -3.427049 -6.034578 31.734251 3.309325 7.621791 -10.539473 0.107336 -1.083976 
-3.670049 51.133934 37.707550 -1.957067 0.105602 85.723961 0.000000 0.000000 0.000000 4.014251 0.029291 1.132817 1.524549 1.437984 -5.773092 -22.527674 -4.046281 -5.130584 -3.599765 -3.667317 8.492075 -71.807762 36.572941 -3.315214 -49.804180 -7.202981 19.983480 12.098251 7.703436 -3.101901 10.543792 10.408585 7.879572 50.768398 -14.448996 5.135155 70.593163 9.735312 21.659376 -18.804705 -2.609500 -3.619055 -16.745359 2.596755 0.224809 14.063532 -1.009247 21.516645 3.323315 -0.022001 -0.947725 3.530438 -4.799541 -6.780193 38.165199 3.045210 5.990820 -2.650944 -0.011974 0.996150 
-2.086054 51.294460 37.427692 -1.340824 -0.175865 85.550331 0.000000 0.000000 0.000000 3.726244 -0.263638 0.917959 0.990959 0.466662 -5.410295 -22.041338 -3.571219 -4.843433 -4.048961 -4.027774 7.846468 -70.772743 35.150856 -1.409467 -51.315346 -7.471947 21.341969 11.189609 8.136219 -3.093795 10.241442 9.081183 7.446507 53.377308 -16.659616 5.335527 70.621597 9.948391 21.944080 -17.055820 -2.269685 -3.654869 -15.027476 2.285248 1.154750 14.114071 -2.019946 21.516968 1.649629 0.008618 -0.786344 -0.342093 -6.434700 -7.280569 43.979050 2.478583 4.227237 7.695708 0.297467 4.265853 
-0.540137 51.474167 37.183685 -0.886207 -0.078156 86.387550 0.000000 0.000000 0.000000 3.659919 -0.458979 0.273429 0.472797 -0.621853 -5.752355 -21.696280 -2.978852 -4.557307 -5.360554 -4.847859 7.642920 -68.609009 32.747784 1.362019 -52.810001 -8.053691 22.070808 11.425195 8.252463 -3.078278 8.850583 8.213225 7.416606 55.866611 -18.116335 5.468367 69.534538 9.949043 23.725313 -15.260687 -2.765616 -3.586651 -12.840448 1.406067 1.279729 13.831118 -2.301398 20.204054 -0.292962 0.005059 -0.018976 -3.485180 -8.599160 -7.986896 48.612965 2.275368 5.457380 16.654694 1.746343 11.747228 
0.910843 51.654648 36.998455 -0.695293 0.068958 86.787857 0.000000 0.000000 0.000000 3.838916 -0.546874 -0.107510 -0.538517 -2.196692 -5.551021 -20.760275 -1.975339 -4.846924 -6.247038 -5.477264 7.947097 -66.191116 28.466431 4.222040 -53.491024 -8.656537 22.735245 11.855481 7.969458 -3.082116 7.997819 8.191359 7.804737 57.484005 -19.297714 5.272415 68.323318 9.981753 24.055063 -14.461747 -3.008839 -3.548565 -10.013530 1.044227 1.706799 12.190763 -2.723428 19.394678 -1.702709 -0.002046 0.955027 -7.234442 -9.478887 -8.598213 54.398335 1.826046 2.420212 15.088881 1.351357 10.227818 
2.324194 51.868713 36.937511 -1.305917 0.293452 87.232338 0.000000 0.000000 0.000000 4.074450 -0.312492 -0.400438 -1.188449 -2.254173 -5.766464 -20.220921 -2.268305 -4.525278 -7.038057 -5.537933 8.438429 -63.952099 23.142656 6.499273 -53.476974 -9.046588 23.910997 12.472652 7.532763 -3.094590 7.290936 8.774256 8.219013 58.849361 -20.440979 5.035693 66.432846 9.944652 24.063530 -14.494449 -2.667170 -3.585730 -7.476902 1.551970 2.252777 11.344026 -2.764254 17.786690 -2.887720 -0.035464 1.535678 -10.348430 -8.961165 -9.000211 57.172882 1.728059 -1.555024 11.650970 0.763118 7.562370 
3.649522 51.962582 36.897297 -1.713339 0.213761 87.666031 0.000000 0.000000 0.000000 4.171130 -0.107415 -0.644548 -1.594315 -2.273370 -5.825013 -19.652929 -2.737503 -3.989149 -7.621775 -5.489206 8.648419 -61.724789 17.771769 8.570303 -53.902454 -9.103279 26.947939 14.355442 7.016099 -3.089472 6.824665 9.293839 8.337113 59.320030 -22.189947 5.887100 65.495125 10.087378 22.546343 -15.212455 -3.626465 -3.483348 -6.190556 1.845581 2.642213 12.057973 -2.745531 16.766617 -4.682108 -0.059648 1.088492 -13.709157 -8.299479 -8.907302 57.592743 1.796182 -4.784536 10.020543 0.512338 6.127744 
4.954029 51.967060 36.929810 -2.430417 -0.098575 88.577614 0.000000 0.000000 0.000000 4.156495 0.214813 -0.976556 -1.976480 -1.485313 -6.232670 -18.884811 -3.285678 -3.267546 -8.381992 -4.892422 8.682661 -59.899128 12.721675 9.997519 -55.959282 -9.341390 27.188076 15.074757 7.209415 -3.048582 6.044651 9.436069 8.267515 60.022030 -24.177328 6.450631 64.592705 10.442948 22.830591 -15.482951 -3.103621 -3.535907 -5.833778 2.536094 3.072322 13.949889 -2.549474 15.495111 -6.922180 -0.014874 0.399515 -16.228712 -7.440520 -8.888166 55.524429 2.782826 -4.468802 7.070721 0.231566 4.061852 
6.263820 51.900898 37.001179 -2.860728 -0.224681 89.692436 0.000000 0.000000 0.000000 4.149821 0.439332 -1.347692 -1.830122 -1.261506 -6.446968 -18.559072 -2.925752 -2.972852 -9.156470 -4.325419 8.755199 -58.666531 7.770190 10.257527 -57.395714 -9.351786 27.061398 15.992514 6.117008 -3.146601 5.191148 9.263159 8.268209 61.752190 -26.385496 5.971756 63.511646 10.151638 23.922529 -15.118762 -2.694935 -3.589828 -4.684128 3.024971 3.401105 14.631659 -2.441566 14.079254 -9.218709 0.021210 -0.097680 -18.188612 -6.481957 -8.288280 51.285130 3.593177 -4.485933 5.159519 0.075957 2.766709 
7.627437 51.811253 37.136696 -3.253151 -0.215067 90.638588 0.000000 0.000000 0.000000 4.219854 0.624728 -1.689459 -2.123710 -0.640321 -6.553196 -17.568279 -2.624754 -2.346656 -9.814146 -3.345504 8.981693 -58.349464 2.810827 9.834829 -58.261936 -9.174001 25.600948 16.174673 5.877618 -3.180474 4.368762 9.551619 8.404737 62.305649 -28.198780 6.203463 62.356922 10.313249 23.893627 -14.506554 -2.923947 -3.558811 -2.780646 3.560583 3.830493 14.251458 -2.373807 12.725146 -11.375553 0.056441 -0.492932 -19.195276 -5.535797 -7.549013 44.862179 4.355251 -5.692130 3.389822 0.033672 2.263241 
8.996059 51.592716 37.238861 -3.166130 -0.306899 90.771255 0.000000 0.000000 0.000000 4.259294 0.566119 -1.826179 -1.811991 0.135881 -6.347661 -18.265532 -3.075495 -1.203109 -10.158071 -2.598858 9.074347 -58.380920 -1.144455 8.618162 -59.757477 -8.493853 25.315941 16.048229 5.012918 -3.292982 4.311740 9.910531 8.433801 62.646015 -30.286804 5.850681 61.603539 10.341855 23.833635 -13.840219 -3.088856 -3.530980 -1.454363 3.561576 4.074039 14.994835 -2.218263 12.776138 -13.955882 0.172600 -1.333070 -19.323484 -5.155302 -6.521420 36.694138 4.910809 -6.042303 0.507073 -0.004618 1.708292 
10.374356 51.417583 37.306660 -3.016581 -1.203599 90.834816 0.000000 0.000000 0.000000 4.033040 0.595378 -1.894632 -2.756226 -0.077769 -5.468758 -17.772278 -1.962655 -0.889488 -10.403206 -2.466651 8.634964 -57.847111 -4.561409 7.695799 -60.595253 -8.180030 23.976389 16.045572 4.481133 -3.357134 4.179927 10.043727 7.975064 62.856632 -31.688499 5.770858 59.370110 10.427686 24.466915 -13.966143 -2.954286 -3.559900 -0.936328 3.431727 4.144897 15.641563 -2.082418 13.086015 -15.886586 0.287601 -2.136276 -21.305225 -4.813668 -5.745205 29.411938 5.008968 -10.018659 0.545751 -0.050040 -1.259359 
11.827137 51.161430 37.456654 -3.025407 -2.173772 90.927185 0.000000 0.000000 0.000000 3.745234 0.712476 -1.953217 -3.783229 0.155648 -5.029305 -17.733480 -1.894502 -0.322735 -10.441276 -2.049922 8.124408 -57.593246 -6.997856 7.016047 -62.204144 -7.590134 23.915287 15.901901 4.725150 -3.325903 4.047806 10.452052 7.385284 62.701702 -33.550232 5.754253 58.234287 10.493361 24.514360 -14.435899 -2.810470 -3.570466 -0.546553 3.687224 4.400474 16.806763 -1.992497 12.765719 -18.222307 0.485765 -3.034887 -21.958918 -4.403554 -4.524116 20.582628 4.695521 -12.892310 1.228224 -0.026305 -1.393145 
13.370185 50.951023 37.604210 -2.823784 -2.639387 90.913658 0.000000 0.000000 0.000000 3.633724 0.800278 -2.031325 -3.696971 0.204504 -4.287117 -19.408360 -1.191399 0.195270 -10.466198 -1.742772 7.941232 -57.667957 -8.625860 6.335964 -63.260303 -6.996873 23.969173 16.010551 4.133980 -3.399766 3.916662 10.473870 7.159500 62.915852 -34.419434 5.426405 56.212971 10.540758 24.370958 -14.025132 -3.389687 -3.508214 1.354764 3.773066 4.867097 16.190847 -2.069349 12.430996 -19.768305 0.666181 -3.720639 -22.045322 -5.008682 -3.875930 13.102738 5.049798 -10.790435 4.802882 0.018439 1.003372 
15.068479 50.743919 37.852726 -3.111108 -2.541567 91.134430 0.000000 0.000000 0.000000 3.661443 1.063712 -2.139028 -3.870255 0.165519 -4.433603 -19.944088 -1.123044 0.136692 -10.760827 -1.123223 8.087070 -58.470512 -9.162109 5.739953 -64.244225 -6.404920 23.957077 16.423622 3.958730 -3.419557 3.408793 10.884356 7.183978 62.820107 -34.846439 5.290474 54.008701 10.619123 24.344406 -13.932711 -3.165740 -3.528513 4.449928 4.294986 5.470019 14.649156 -1.747297 11.835976 -21.018599 0.896516 -4.668224 -18.998398 -4.939887 -3.179220 3.231909 5.242847 -6.943499 9.675644 0.195482 2.484466 
16.846096 50.457111 38.185776 -3.024432 -2.481840 90.766945 0.000000 0.000000 0.000000 3.498667 1.054056 -1.982625 -4.014870 0.136278 -4.599620 -20.363708 -1.269529 0.107395 -11.009506 -0.820287 7.965607 -58.955292 -8.040499 5.446831 -65.732216 -6.089076 22.946413 17.086620 3.990940 -3.416543 3.056320 11.248051 6.989536 62.745636 -35.647800 5.142546 52.998562 10.627220 24.186182 -13.932039 -3.462276 -3.504383 7.225150 4.413984 5.891789 14.151887 -1.229946 11.491221 -22.102818 1.157252 -5.902894 -17.594408 -5.047873 -2.751317 -0.780029 5.112120 -4.147340 13.486090 0.452917 4.261235 
18.747473 50.576103 38.620026 -3.947495 -1.959271 90.698616 0.000000 0.000000 0.000000 3.721773 1.707660 -2.256603 -3.516771 0.983138 -4.610036 -21.013878 -2.275224 0.693588 -10.940409 -0.124966 8.400957 -60.186337 -6.697999 5.552536 -65.038841 -5.875694 22.977316 16.917728 3.161635 -3.526872 3.173730 12.572993 7.170486 62.041271 -34.651287 5.111794 49.401672 10.669518 24.545782 -14.113539 -3.532649 -3.488129 12.064365 5.379372 6.467604 10.367410 -0.273645 10.301822 -19.944031 1.224774 -6.914171 -19.644634 -3.749235 -2.888171 7.460406 4.990027 -7.621138 10.442079 0.311741 3.720562 
20.536539 50.710091 39.074451 -6.005317 -1.591317 89.960670 0.000000 0.000000 0.000000 3.794424 2.527614 -2.091686 -3.162958 2.658207 -4.389096 -21.271507 -2.958365 1.173337 -10.458701 1.286621 8.816200 -61.999786 -4.530663 5.877517 -64.785912 -5.808324 23.162775 17.221453 2.575037 -3.607127 3.379674 14.688668 7.157628 60.708416 -33.905552 4.746991 47.595154 10.694571 24.544495 -14.294517 -3.458390 -3.499270 12.118447 7.646871 7.180381 15.799923 1.327028 7.498207 -18.915709 1.415758 -8.294031 -19.359066 -0.849452 -2.279700 11.335345 4.969245 -8.275651 8.063488 0.139854 2.351179 
22.331959 50.922554 39.527428 -6.618127 -1.143634 89.702560 0.000000 0.000000 0.000000 3.779068 2.927336 -2.297910 -2.291013 3.513535 -4.705772 -20.811756 -3.367964 1.516220 -10.872948 1.815384 8.915081 -64.053314 -0.498537 5.384758 -64.198677 -5.900182 22.579691 18.837395 2.268580 -3.672909 3.413339 15.376226 7.009477 60.299389 -33.824635 4.564268 47.858608 10.642594 24.531052 -14.123127 -3.820221 -3.464670 11.233695 8.785947 7.343309 21.919664 2.278697 5.104552 -15.780278 1.279961 -9.088275 -18.091900 0.487693 -2.373035 13.751241 5.065553 -9.047711 5.329700 0.031188 1.057053 
